# xmcd CD database file
#
# Track frame offsets:
#	150
#	4252
#	7557
#	33532
#	43860
#	62605
#	72012
#	93427
#	119662
#	137385
#	164185
#	183817
#	205175
#	226087
#	259992
#	275980
#	305252
#
# Disc length: 4415 seconds
#
# Revision: 1
# Processed by: cddbd v1.5.1PL0 Copyright (c) Steve Scherf et al.
# Submitted via: CDex 1.50
#
DISCID=e8113d11
DTITLE=Chris McDermott And His Wild Combo - Got It Made
DYEAR=1995
DGENRE=New Age
TTITLE0=Fishin' Tru Da' Fence
TTITLE1=Revolution
TTITLE2=Hard In Luv
TTITLE3=Let Me B The 1
TTITLE4=Kickin' Round
TTITLE5=St. Louis Blues
TTITLE6=Low Threshold O' Pleasure
TTITLE7=Give It Up
TTITLE8=Man On Fire
TTITLE9=Nothin' To Lose
TTITLE10=Hellcat Swamp
TTITLE11=Loose Talk
TTITLE12=Wronged Again
TTITLE13=Call Me If-U-Need Me
TTITLE14=Scarified
TTITLE15=Got It Made
TTITLE16=Long River
EXTD=YEAR: 1995
EXTT0=
EXTT1=
EXTT2=
EXTT3=
EXTT4=
EXTT5=
EXTT6=
EXTT7=
EXTT8=
EXTT9=
EXTT10=
EXTT11=
EXTT12=
EXTT13=
EXTT14=
EXTT15=
EXTT16=
PLAYORDER=
